<?xml version="1.0" encoding="utf-8"?>
<!-- Generator: Adobe Illustrator 18.1.1, SVG Export Plug-In . SVG Version: 6.00 Build 0)  -->
<svg version="1.1" id="Isolation_Mode" xmlns="http://www.w3.org/2000/svg" xmlns:xlink="http://www.w3.org/1999/xlink" x="0px"
	 y="0px" viewBox="0 0 841.9 595.3" enable-background="new 0 0 841.9 595.3" xml:space="preserve">
<g>
	<path fill="#FFFFFF" d="M992.1,67.6c0.5,0,0.9-0.1,1.3-0.2s0.7-0.3,0.9-0.6s0.4-0.5,0.5-0.8s0.2-0.6,0.2-1c0-0.4-0.1-0.7-0.2-0.9
		s-0.3-0.5-0.5-0.6s-0.5-0.3-0.8-0.4s-0.6-0.1-1-0.1c-0.5,0-1,0.1-1.4,0.3s-0.7,0.4-0.9,0.6s-0.4,0.5-0.5,0.8s-0.1,0.5-0.1,0.8
		c0,0.7,0.2,1.2,0.6,1.6S991.2,67.6,992.1,67.6z"/>
	<path fill="#FFFFFF" d="M1022.1,78.9c-0.3,0.2-0.5,0.4-0.8,0.5s-0.5,0.3-0.8,0.4s-0.5,0.1-0.7,0.1c-0.2,0-0.3-0.1-0.5-0.4
		s-0.2-0.5-0.2-0.9c0-0.7,0.1-1.4,0.3-2.1s0.4-1.3,0.6-1.9s0.4-1.3,0.6-1.9s0.3-1.3,0.3-1.9c0-0.3,0-0.6-0.1-0.8s-0.2-0.4-0.3-0.5
		s-0.3-0.2-0.4-0.2s-0.3-0.1-0.4-0.1c-0.5,0-1,0.2-1.5,0.5s-1.1,0.8-1.6,1.3s-1.1,1.1-1.6,1.7s-0.9,1.2-1.3,1.7l-0.3-0.2
		c0.3-0.6,0.7-1.3,1.1-2.1s0.9-1.7,1.3-2.6s0.9-1.9,1.3-2.8s0.8-1.9,1.1-2.9s0.6-1.9,0.8-2.7s0.3-1.7,0.3-2.4c0-0.5,0-0.9-0.1-1.3
		s-0.2-0.7-0.4-1s-0.5-0.5-0.8-0.7s-0.8-0.2-1.3-0.2c-1,0-1.9,0.3-2.7,0.8s-1.5,1.3-2,2.3s-1.1,2.1-1.5,3.3s-0.7,2.6-1,4
		s-0.5,2.8-0.6,4.2s-0.3,2.8-0.3,4.1s-0.1,2.5-0.1,3.5c0,0.3,0,0.6,0,0.9c-0.1,0.1-0.1,0.1-0.2,0.2c-0.2,0.2-0.5,0.4-0.7,0.6
		s-0.5,0.3-0.7,0.5s-0.4,0.3-0.6,0.3s-0.4,0.1-0.5,0.1c-0.3,0-0.6-0.2-0.7-0.6s-0.2-0.9-0.2-1.5c0-0.4,0-0.8,0.1-1.2
		s0.1-0.9,0.2-1.3s0.1-0.9,0.2-1.3s0.2-0.8,0.2-1.2s0.1-0.7,0.2-0.9s0.1-0.4,0.1-0.5c0-0.7-0.1-1.3-0.4-1.7s-0.7-0.6-1.2-0.6
		s-0.9,0.1-1.3,0.3s-0.8,0.6-1.1,1.1c-0.1,0.1-0.2,0.3-0.3,0.5s-0.3,0.5-0.5,0.8s-0.3,0.6-0.5,1s-0.4,0.7-0.5,1s-0.3,0.6-0.4,0.8
		s-0.2,0.4-0.3,0.5H999c0-0.1,0-0.2,0-0.4s0.1-0.4,0.1-0.7s0.1-0.6,0.1-0.9s0.1-0.6,0.1-0.9s0.1-0.6,0.1-0.8s0-0.4,0-0.6
		c0-0.5-0.1-1-0.3-1.3s-0.6-0.5-1.1-0.5s-0.9,0.2-1.3,0.5s-0.5,0.7-0.6,1.1c-0.1,0.6-0.3,1.3-0.4,2.1s-0.3,1.7-0.4,2.5
		c-0.1,0.9-0.2,1.7-0.3,2.6c-0.1,0.1-0.1,0.1-0.2,0.2c-0.4,0.4-0.8,0.7-1.3,1.1s-0.9,0.6-1.3,0.9s-0.8,0.4-1.2,0.4
		c-0.3,0-0.5-0.1-0.6-0.4s-0.1-0.6-0.1-1c0-0.4,0-1,0.1-1.5s0.2-1.1,0.4-1.7s0.3-1.2,0.5-1.8s0.3-1.1,0.5-1.7s0.3-1,0.4-1.4
		s0.1-0.7,0.1-0.9c0-0.3-0.1-0.5-0.2-0.6s-0.4-0.2-0.8-0.2c-0.2,0-0.5,0-0.8,0.1s-0.5,0.1-0.8,0.2s-0.5,0.3-0.7,0.4
		s-0.3,0.4-0.4,0.7c-0.2,0.7-0.4,1.5-0.6,2.4s-0.4,1.7-0.7,2.6s-0.4,1.7-0.5,2.5s-0.2,1.5-0.2,2.1c0,0.4,0,0.8,0.1,1.2
		s0.2,0.7,0.5,0.9s0.5,0.5,0.8,0.6s0.8,0.2,1.3,0.2c0.6,0,1.2-0.1,1.8-0.3s1.2-0.5,1.9-0.8s1.2-0.6,1.7-1c0.1-0.1,0.2-0.2,0.3-0.2
		c0,0.1,0,0.3,0,0.4c0,0.4,0.1,0.7,0.3,1s0.3,0.5,0.6,0.7s0.6,0.3,1,0.3c0.3,0,0.6-0.1,0.8-0.2s0.5-0.4,0.7-0.8l3.8-7.6h0.2
		c-0.1,0.8-0.2,1.5-0.3,2.2s-0.1,1.3-0.1,1.9c0,1.5,0.2,2.6,0.5,3.4s0.8,1.2,1.4,1.2s1-0.1,1.5-0.2s1-0.3,1.4-0.6s0.9-0.5,1.3-0.8
		c0.1-0.1,0.2-0.2,0.3-0.2c0,0.3,0.1,0.6,0.2,0.8c0.1,0.3,0.2,0.6,0.4,0.7s0.4,0.3,0.8,0.3c0.2,0,0.4-0.1,0.6-0.2s0.3-0.3,0.4-0.5
		s0.3-0.5,0.4-0.8s0.3-0.7,0.5-1.1c0.4-0.9,0.9-1.8,1.4-2.6s1-1.6,1.5-2.3s0.9-1.2,1.3-1.7s0.7-0.7,0.8-0.8l0.3,0
		c0,0-0.1,0.1-0.2,0.3s-0.2,0.4-0.3,0.7s-0.3,0.6-0.4,1s-0.3,0.8-0.4,1.1s-0.2,0.8-0.3,1.2s-0.1,0.7-0.1,1c0,0.5,0.1,1,0.2,1.5
		s0.3,1,0.6,1.5s0.6,0.8,1,1.1s0.9,0.4,1.4,0.4c0.4,0,0.7-0.1,1.1-0.2s0.8-0.3,1.2-0.4s0.8-0.4,1.1-0.6s0.7-0.5,1.1-0.7
		s0.6-0.4,0.9-0.7c0.2-0.1,0.3-0.3,0.5-0.4c0,0,0,0,0,0c0.1,0,0.1-0.1,0.2-0.1c1.5-1.1,2.3-2.2,2.7-2.8c0.3-0.6,0.6-2.1-0.4-2.7
		c-0.9-0.5-2.4,1.3-2.6,1.6c-0.5,0.6-1,1.2-1.5,1.6C1022.6,78.5,1022.4,78.7,1022.1,78.9z M1012.5,71.2c-0.3,0.7-0.6,1.4-0.9,2
		c0.1-1.1,0.2-2.3,0.4-3.4c0.1-0.5,0.1-1,0.2-1.6s0.2-1.1,0.3-1.7s0.2-1.1,0.4-1.7s0.3-1.1,0.5-1.7c0.6-1.6,1.3-2.8,1.8-3.6
		s0.9-1.2,1.1-1.2c0.2,0,0.3,0.4,0.3,1.1c0,0.5-0.1,1.2-0.4,2.3s-0.7,2.3-1.3,3.8c-0.2,0.4-0.4,1-0.7,1.6s-0.6,1.3-0.9,2
		S1012.8,70.4,1012.5,71.2z"/>
	<path fill="#FFFFFF" d="M976.5,79.5c0-0.2,0-0.4,0-0.8s0-0.8,0.1-1.4c1.1-0.7,2.1-1.4,3.1-2.2s1.9-1.7,2.8-2.7s1.6-1.9,2.3-2.9
		s1.3-2,1.8-3s0.9-2,1.2-3s0.4-1.9,0.4-2.9c0-0.7-0.1-1.4-0.2-1.9s-0.4-1-0.7-1.4s-0.6-0.6-1.1-0.8s-0.9-0.3-1.3-0.3
		c-0.7,0-1.4,0.2-2.2,0.5s-1.6,0.9-2.4,1.6s-1.6,1.6-2.3,2.6s-1.5,2.2-2.1,3.6s-1.2,2.9-1.7,4.6s-0.8,3.6-1,5.6l-0.1,1
		c-0.5,0.3-0.9,0.7-1.4,1s-0.9,0.6-1.3,0.9s-0.8,0.5-1.1,0.7s-0.5,0.3-0.6,0.4c-0.2,0.1-0.3,0.3-0.3,0.4s-0.1,0.4-0.1,0.5
		c0,0.2,0,0.5,0.1,0.7s0.2,0.4,0.3,0.6s0.3,0.3,0.4,0.4s0.3,0.2,0.5,0.2s0.5-0.2,1.1-0.5s1.3-0.8,2.1-1.5c0,0.6,0.1,1.2,0.2,1.8
		s0.3,1,0.6,1.5s0.6,0.8,1.1,1s1.1,0.4,1.8,0.4c0.5,0,1,0,1.5-0.1s1-0.1,1.5-0.2s1-0.2,1.5-0.3s0.9-0.2,1.4-0.4c1-0.3,2-0.6,2.9-1
		c0.2,0,0.4-0.1,0.6-0.2s0.3-0.3,0.4-0.4s0.2-0.3,0.3-0.5s0.1-0.4,0.1-0.6c0-0.2,0-0.4-0.1-0.6s-0.1-0.4-0.3-0.5s-0.3-0.3-0.4-0.4
		s-0.4-0.1-0.6-0.1c-0.1,0-0.1,0-0.2,0s-0.2,0-0.2,0l-4.9,1.4c-0.7,0.2-1.3,0.3-1.8,0.3c-0.3,0-0.5,0-0.7,0s-0.3-0.1-0.4-0.1
		s-0.2-0.1-0.2-0.2s-0.1-0.2-0.1-0.2c0,0,0-0.1,0-0.2S976.5,79.7,976.5,79.5z M977.4,69.7c0.3-1.2,0.6-2.4,1-3.4s0.8-2,1.3-2.9
		s0.9-1.6,1.4-2.2s0.9-1.1,1.3-1.4s0.8-0.5,1.1-0.5c0.3,0,0.5,0.1,0.6,0.4s0.2,0.7,0.2,1.2c0,0.2,0,0.3,0,0.5s0,0.4-0.1,0.6
		c-0.1,0.6-0.3,1.2-0.5,1.9s-0.6,1.3-1,2s-0.8,1.4-1.3,2.1s-1,1.4-1.5,2.1s-1.1,1.3-1.6,1.9s-1.1,1.2-1.6,1.7
		C976.9,72.3,977.1,71,977.4,69.7z"/>
	<path fill="#FFFFFF" d="M1024.7,80.5L1024.7,80.5c-0.1,0-0.1,0.1-0.2,0.1C1024.6,80.5,1024.6,80.5,1024.7,80.5z"/>
	<path fill="#FFFFFF" d="M1024.5,80.6C1024.5,80.6,1024.5,80.6,1024.5,80.6C1024.5,80.6,1024.5,80.6,1024.5,80.6L1024.5,80.6z"/>
</g>
</svg>
